<?xml version="1.0" encoding="utf-8"?>
<!-- Generator: Adobe Illustrator 24.0.2, SVG Export Plug-In . SVG Version: 6.00 Build 0)  -->
<svg version="1.1" id="图层_1" xmlns="http://www.w3.org/2000/svg" xmlns:xlink="http://www.w3.org/1999/xlink" x="0px" y="0px"
	 viewBox="0 0 346 147" style="enable-background:new 0 0 346 147;" xml:space="preserve">
<style type="text/css">
	.st0{opacity:0.1;}
	.st1{fill:#7CF1FD;}
	.st2{fill:#0084FF;}
	.st3{opacity:0.5;fill:#00EAFF;enable-background:new    ;}
</style>
<g class="st0">
	<path class="st1" d="M336,85.3c-87.9-1.5-71.1-58.1-90.7-57.8c-13.8,0.2-13.6,39.6-35,38.9C185.2,65.6,192.7,0,170.1,0
		c-22.9,0-16.8,75.2-48.7,74.2c-30.2-0.8-30.1-34.3-37.5-34.3c-7.3,0-8.8,42.5-35,42.5c-18.3,0-17.3-17.4-26.7-17.4
		C13.8,65.1,14.5,80,0,84.4v0.5h298h38V85.3z"/>
	<path class="st2" d="M342.2,85.3c-34.1,0-34.2,22-48.5,22.2c-11.3,0.2-14-19.4-39.7-18.9c-33.9,0.7-26.6,58.4-46.3,58.4
		c-18.9,0-12.8-59.1-44.3-59.1c-32.6,0-25.2,39.6-37,39.6c-10.5,0-5.5-39.4-36.2-39.9c-25.9-0.3-29.9,10.1-42.7,9.9
		C30.1,97.3,31.2,85.1,6.5,85.1h335.7V85.3z"/>
	<path class="st3" d="M346,85.3c-38.7,0-43.5-15.9-56.3-16.1c-10-0.2-14,10.1-44.2,9.4c-34.1-0.7-23.4-40.4-40.9-40.4
		c-16.6,0-8.5,42-36.2,41.9C146,80,150.5,52.8,136.2,52.8c-13.3,0-13.8,30.3-33.9,30.6C85,83.6,75.7,67,65.6,67
		c-12.1,0-16.3,18.2-39.5,18.2H346z"/>
</g>
</svg>
